<mxfile host="app.diagrams.net" modified="2024-05-29T10:52:53.634Z" agent="Mozilla/5.0 (Windows NT 10.0; Win64; x64) AppleWebKit/537.36 (KHTML, like Gecko) Chrome/125.0.0.0 Safari/537.36" etag="R1elId0Ne1V8GvonRSTP" version="24.3.1" type="github">
  <diagram name="Page-1" id="GZAQ_rb6XUfxULKNEcLe">
    <mxGraphModel dx="2074" dy="1132" grid="1" gridSize="10" guides="1" tooltips="1" connect="1" arrows="1" fold="1" page="1" pageScale="1" pageWidth="1169" pageHeight="827" math="0" shadow="0">
      <root>
        <mxCell id="0" />
        <mxCell id="1" parent="0" />
        <mxCell id="z3RG9zAnCcS4gex4DY__-4" value="" style="rounded=1;whiteSpace=wrap;html=1;fillColor=#f5e6d8;strokeColor=none;" parent="1" vertex="1">
          <mxGeometry width="200" height="440" as="geometry" />
        </mxCell>
        <mxCell id="z3RG9zAnCcS4gex4DY__-5" value="" style="rounded=1;whiteSpace=wrap;html=1;fillColor=#d9d9d9;strokeColor=none;" parent="1" vertex="1">
          <mxGeometry x="280" width="200" height="440" as="geometry" />
        </mxCell>
        <mxCell id="z3RG9zAnCcS4gex4DY__-6" value="" style="rounded=1;whiteSpace=wrap;html=1;fillColor=#e5f0db;strokeColor=none;" parent="1" vertex="1">
          <mxGeometry x="560" width="200" height="440" as="geometry" />
        </mxCell>
        <mxCell id="z3RG9zAnCcS4gex4DY__-7" value="" style="ellipse;whiteSpace=wrap;html=1;aspect=fixed;strokeWidth=3;strokeColor=#595959;" parent="1" vertex="1">
          <mxGeometry x="40" y="670" width="60" height="60" as="geometry" />
        </mxCell>
        <mxCell id="z3RG9zAnCcS4gex4DY__-8" value="Input 1" style="text;html=1;align=center;verticalAlign=middle;resizable=0;points=[];autosize=1;strokeColor=none;fillColor=none;fontStyle=1;fontSize=17;" parent="1" vertex="1">
          <mxGeometry x="30" y="740" width="80" height="30" as="geometry" />
        </mxCell>
        <mxCell id="akKol83kmXxrZ-0CjjJh-11" style="rounded=0;orthogonalLoop=1;jettySize=auto;html=1;entryX=0;entryY=0.5;entryDx=0;entryDy=0;strokeWidth=3;strokeColor=#595959;" edge="1" parent="1" source="z3RG9zAnCcS4gex4DY__-9" target="akKol83kmXxrZ-0CjjJh-1">
          <mxGeometry relative="1" as="geometry" />
        </mxCell>
        <mxCell id="z3RG9zAnCcS4gex4DY__-9" value="" style="ellipse;whiteSpace=wrap;html=1;aspect=fixed;strokeWidth=3;strokeColor=#595959;" parent="1" vertex="1">
          <mxGeometry x="70" y="40" width="60" height="60" as="geometry" />
        </mxCell>
        <mxCell id="z3RG9zAnCcS4gex4DY__-11" value="Input 1" style="text;html=1;align=center;verticalAlign=middle;resizable=0;points=[];autosize=1;strokeColor=none;fillColor=none;fontStyle=1;fontSize=17;" parent="1" vertex="1">
          <mxGeometry x="60" y="110" width="80" height="30" as="geometry" />
        </mxCell>
        <mxCell id="z3RG9zAnCcS4gex4DY__-12" value="" style="ellipse;whiteSpace=wrap;html=1;aspect=fixed;strokeWidth=3;strokeColor=#595959;" parent="1" vertex="1">
          <mxGeometry x="70" y="170" width="60" height="60" as="geometry" />
        </mxCell>
        <mxCell id="z3RG9zAnCcS4gex4DY__-13" value="Input 2" style="text;html=1;align=center;verticalAlign=middle;resizable=0;points=[];autosize=1;strokeColor=none;fillColor=none;fontStyle=1;fontSize=17;" parent="1" vertex="1">
          <mxGeometry x="60" y="240" width="80" height="30" as="geometry" />
        </mxCell>
        <mxCell id="z3RG9zAnCcS4gex4DY__-14" value="" style="ellipse;whiteSpace=wrap;html=1;aspect=fixed;strokeWidth=3;strokeColor=#595959;" parent="1" vertex="1">
          <mxGeometry x="70" y="300" width="60" height="60" as="geometry" />
        </mxCell>
        <mxCell id="z3RG9zAnCcS4gex4DY__-15" value="Input 3" style="text;html=1;align=center;verticalAlign=middle;resizable=0;points=[];autosize=1;strokeColor=none;fillColor=none;fontStyle=1;fontSize=17;" parent="1" vertex="1">
          <mxGeometry x="60" y="370" width="80" height="30" as="geometry" />
        </mxCell>
        <mxCell id="z3RG9zAnCcS4gex4DY__-16" value="INPUT LAYER" style="text;html=1;align=center;verticalAlign=middle;resizable=0;points=[];autosize=1;strokeColor=none;fillColor=none;fontStyle=1;fontSize=17;" parent="1" vertex="1">
          <mxGeometry x="35" y="460" width="130" height="30" as="geometry" />
        </mxCell>
        <mxCell id="z3RG9zAnCcS4gex4DY__-17" value="PROCESS LAYER" style="text;html=1;align=center;verticalAlign=middle;resizable=0;points=[];autosize=1;strokeColor=none;fillColor=none;fontStyle=1;fontSize=17;" parent="1" vertex="1">
          <mxGeometry x="295" y="460" width="170" height="30" as="geometry" />
        </mxCell>
        <mxCell id="z3RG9zAnCcS4gex4DY__-18" value="OUTPUT LAYER" style="text;html=1;align=center;verticalAlign=middle;resizable=0;points=[];autosize=1;strokeColor=none;fillColor=none;fontStyle=1;fontSize=17;" parent="1" vertex="1">
          <mxGeometry x="585" y="460" width="150" height="30" as="geometry" />
        </mxCell>
        <mxCell id="akKol83kmXxrZ-0CjjJh-1" value="" style="ellipse;whiteSpace=wrap;html=1;aspect=fixed;strokeWidth=3;strokeColor=#595959;" vertex="1" parent="1">
          <mxGeometry x="350" y="120" width="60" height="60" as="geometry" />
        </mxCell>
        <mxCell id="akKol83kmXxrZ-0CjjJh-2" value="Decision Table 1" style="text;html=1;align=center;verticalAlign=middle;resizable=0;points=[];autosize=1;strokeColor=none;fillColor=none;fontStyle=1;fontSize=17;" vertex="1" parent="1">
          <mxGeometry x="305" y="190" width="150" height="30" as="geometry" />
        </mxCell>
        <mxCell id="akKol83kmXxrZ-0CjjJh-3" value="" style="ellipse;whiteSpace=wrap;html=1;aspect=fixed;strokeWidth=3;strokeColor=#595959;" vertex="1" parent="1">
          <mxGeometry x="350" y="250" width="60" height="60" as="geometry" />
        </mxCell>
        <mxCell id="akKol83kmXxrZ-0CjjJh-4" value="Decision Table 2" style="text;html=1;align=center;verticalAlign=middle;resizable=0;points=[];autosize=1;strokeColor=none;fillColor=none;fontStyle=1;fontSize=17;" vertex="1" parent="1">
          <mxGeometry x="305" y="320" width="150" height="30" as="geometry" />
        </mxCell>
        <mxCell id="akKol83kmXxrZ-0CjjJh-5" value="" style="ellipse;whiteSpace=wrap;html=1;aspect=fixed;strokeWidth=3;strokeColor=#595959;" vertex="1" parent="1">
          <mxGeometry x="630" y="40" width="60" height="60" as="geometry" />
        </mxCell>
        <mxCell id="akKol83kmXxrZ-0CjjJh-6" value="Output 1" style="text;html=1;align=center;verticalAlign=middle;resizable=0;points=[];autosize=1;strokeColor=none;fillColor=none;fontStyle=1;fontSize=17;" vertex="1" parent="1">
          <mxGeometry x="615" y="110" width="90" height="30" as="geometry" />
        </mxCell>
        <mxCell id="akKol83kmXxrZ-0CjjJh-7" value="" style="ellipse;whiteSpace=wrap;html=1;aspect=fixed;strokeWidth=3;strokeColor=#595959;" vertex="1" parent="1">
          <mxGeometry x="630" y="170" width="60" height="60" as="geometry" />
        </mxCell>
        <mxCell id="akKol83kmXxrZ-0CjjJh-8" value="Output 2" style="text;html=1;align=center;verticalAlign=middle;resizable=0;points=[];autosize=1;strokeColor=none;fillColor=none;fontStyle=1;fontSize=17;" vertex="1" parent="1">
          <mxGeometry x="615" y="240" width="90" height="30" as="geometry" />
        </mxCell>
        <mxCell id="akKol83kmXxrZ-0CjjJh-9" value="" style="ellipse;whiteSpace=wrap;html=1;aspect=fixed;strokeWidth=3;strokeColor=#595959;" vertex="1" parent="1">
          <mxGeometry x="630" y="300" width="60" height="60" as="geometry" />
        </mxCell>
        <mxCell id="akKol83kmXxrZ-0CjjJh-10" value="Output 3" style="text;html=1;align=center;verticalAlign=middle;resizable=0;points=[];autosize=1;strokeColor=none;fillColor=none;fontStyle=1;fontSize=17;" vertex="1" parent="1">
          <mxGeometry x="615" y="370" width="90" height="30" as="geometry" />
        </mxCell>
        <mxCell id="akKol83kmXxrZ-0CjjJh-13" style="rounded=0;orthogonalLoop=1;jettySize=auto;html=1;entryX=0;entryY=0.5;entryDx=0;entryDy=0;strokeWidth=3;strokeColor=#595959;exitX=1;exitY=0.5;exitDx=0;exitDy=0;" edge="1" parent="1" source="z3RG9zAnCcS4gex4DY__-12" target="akKol83kmXxrZ-0CjjJh-1">
          <mxGeometry relative="1" as="geometry">
            <mxPoint x="139" y="89" as="sourcePoint" />
            <mxPoint x="360" y="160" as="targetPoint" />
          </mxGeometry>
        </mxCell>
        <mxCell id="akKol83kmXxrZ-0CjjJh-15" style="rounded=0;orthogonalLoop=1;jettySize=auto;html=1;entryX=0;entryY=0.5;entryDx=0;entryDy=0;strokeWidth=3;strokeColor=#595959;exitX=1;exitY=0.5;exitDx=0;exitDy=0;" edge="1" parent="1" source="z3RG9zAnCcS4gex4DY__-14" target="akKol83kmXxrZ-0CjjJh-3">
          <mxGeometry relative="1" as="geometry">
            <mxPoint x="140" y="210" as="sourcePoint" />
            <mxPoint x="360" y="160" as="targetPoint" />
          </mxGeometry>
        </mxCell>
        <mxCell id="akKol83kmXxrZ-0CjjJh-17" style="rounded=0;orthogonalLoop=1;jettySize=auto;html=1;entryX=0;entryY=0.5;entryDx=0;entryDy=0;strokeWidth=3;strokeColor=#595959;exitX=1;exitY=0.5;exitDx=0;exitDy=0;" edge="1" parent="1">
          <mxGeometry relative="1" as="geometry">
            <mxPoint x="230" y="750" as="sourcePoint" />
            <mxPoint x="450" y="700" as="targetPoint" />
          </mxGeometry>
        </mxCell>
        <mxCell id="akKol83kmXxrZ-0CjjJh-18" style="rounded=0;orthogonalLoop=1;jettySize=auto;html=1;entryX=0;entryY=0.5;entryDx=0;entryDy=0;strokeWidth=3;strokeColor=#595959;exitX=1;exitY=0.5;exitDx=0;exitDy=0;" edge="1" parent="1" source="akKol83kmXxrZ-0CjjJh-1" target="akKol83kmXxrZ-0CjjJh-5">
          <mxGeometry relative="1" as="geometry">
            <mxPoint x="860" y="110" as="sourcePoint" />
            <mxPoint x="1080" y="60" as="targetPoint" />
          </mxGeometry>
        </mxCell>
        <mxCell id="akKol83kmXxrZ-0CjjJh-19" style="rounded=0;orthogonalLoop=1;jettySize=auto;html=1;entryX=0;entryY=0.5;entryDx=0;entryDy=0;strokeWidth=3;strokeColor=#595959;exitX=1;exitY=0.5;exitDx=0;exitDy=0;" edge="1" parent="1" source="akKol83kmXxrZ-0CjjJh-3" target="akKol83kmXxrZ-0CjjJh-7">
          <mxGeometry relative="1" as="geometry">
            <mxPoint x="530" y="680" as="sourcePoint" />
            <mxPoint x="750" y="630" as="targetPoint" />
          </mxGeometry>
        </mxCell>
        <mxCell id="akKol83kmXxrZ-0CjjJh-20" style="rounded=0;orthogonalLoop=1;jettySize=auto;html=1;entryX=0;entryY=0.5;entryDx=0;entryDy=0;strokeWidth=3;strokeColor=#595959;exitX=1;exitY=0.5;exitDx=0;exitDy=0;" edge="1" parent="1" source="akKol83kmXxrZ-0CjjJh-3" target="akKol83kmXxrZ-0CjjJh-9">
          <mxGeometry relative="1" as="geometry">
            <mxPoint x="500" y="630" as="sourcePoint" />
            <mxPoint x="720" y="580" as="targetPoint" />
          </mxGeometry>
        </mxCell>
      </root>
    </mxGraphModel>
  </diagram>
</mxfile>
